# xmcd
# Track frame offsets:
# 183
# 18545
# 30155
# 48370
# 63090
# 85843
# 100043
# 113138
# 128763
# 141075
# 156598
#
# Disc length: 2352 seconds
# Revision: 0
# Processed by: cddbd v1.5PL3 Copyright (c) Steve Scherf et al.
# Submitted via: VisiTrax 2.9.9.202 - For more info visit www.synapsa.com
#
DISCID=84092e0b
DTITLE=Jimmy Tittle - Jimmy Tittle
DYEAR=1988
DGENRE=
TTITLE0=Waiting For A Southern Train /w Johnny Cash
TTITLE1=You Can´t Stop Love
TTITLE2=If I Were The Man You Wanted
TTITLE3=The Driver
TTITLE4=It Aint Easy
TTITLE5=Baby I Know We Can
TTITLE6=Careful What You Say /w Rosanne Cash
TTITLE7=The Heart Of Man
TTITLE8=I Believe You Now
TTITLE9=When You Held Me In Your Arms
TTITLE10=Ride These Trains /w Rodney Crowell
EXTD=
EXTT0=
EXTT1=
EXTT2=
EXTT3=
EXTT4=
EXTT5=
EXTT6=
EXTT7=
EXTT8=
EXTT9=
EXTT10=
PLAYORDER=
